<?xml version="1.0" encoding="UTF-8" standalone="no"?>
<!-- Created with Inkscape (http://www.inkscape.org/) -->

<svg
   version="1.1"
   id="svg1"
   width="631.18823"
   height="618.28754"
   viewBox="0 0 631.18823 618.28754"
   xmlns="http://www.w3.org/2000/svg"
   xmlns:svg="http://www.w3.org/2000/svg">
  <defs
     id="defs1" />
  <g
     id="g1"
     transform="translate(-1305.0586,-207.72029)">
    <path
       style="fill:#000000;fill-opacity:1;stroke:#000000;stroke-opacity:1"
       d="m 1615.3956,824.33464 c -2.475,-0.94682 -11.475,-5.13936 -20,-9.31674 -15.8121,-7.74819 -37.0094,-16.39246 -81.5,-33.23581 -71.8334,-27.19482 -95.81,-40.98354 -115.1042,-66.19518 -4.5989,-6.0093 -7.7656,-8.90779 -14.3958,-13.17629 -34.9543,-22.50349 -60,-73.24212 -60,-121.5505 0,-5.50133 -0.6262,-7.73014 -4.4364,-15.78942 -25.88,-54.74133 -17.0675,-121.62984 27.9154,-211.88389 2.33,-4.675 6.3745,-14.575 8.9877,-22 34.2871,-97.4227 163.2622,-151.40876 254.3305,-106.457 11.2972,5.57635 11.2972,5.57635 17.5813,2.0621 89.171,-49.8673 222.5815,5.71061 256.6748,106.92905 2.0461,6.07455 6.4689,16.52799 9.8284,23.22988 43.3402,86.45814 51.8333,155.03872 25.6555,207.162 -3.8898,7.74494 -4.5372,9.89863 -4.5372,15.0934 0,52.25932 -27.0424,105.7492 -63.1456,124.9019 -2.5733,1.36514 -5.7217,4.27356 -7.6433,7.06073 -18.5565,26.91572 -42.4767,40.87722 -121.7111,71.03908 -52.8353,20.11261 -72.9671,28.57689 -90.5,38.05019 -10.7428,5.80449 -12.464,6.1943 -18,4.0765 z m 35.5,-47.36853 c 57.6037,-15.59986 101.3448,-57.53063 97.3394,-93.31076 -0.3369,-3.00899 -0.3982,-2.96823 -8.2741,5.5 -4.3641,4.69231 -12.9141,13.20086 -19,18.90791 -9.9575,9.33765 -18.308,16.19591 -63.1696,51.88153 -28.3312,22.5363 -28.4632,22.86209 -6.8957,17.02132 z m -45,-0.36126 c -6.1714,-5.41054 -25.4247,-20.76972 -41.915,-33.43735 -26.6038,-20.43666 -69.585,-59.41276 -69.585,-63.1009 0,-0.48388 -0.509,-0.87979 -1.1311,-0.87979 -2.1301,0 -0.3942,19.59823 2.4548,27.71374 11.3825,32.42322 57.5554,64.13337 105.6763,72.57532 8.0079,1.40485 8.8004,0.89924 4.5,-2.87102 z m 193.1582,-64.33498 c 24.3352,-20.48413 33.4032,-52.32434 24.3787,-85.6003 -3.4466,-12.70885 -11.3255,-30.04791 -12.4109,-27.31281 -1.8085,4.55702 -11.6573,24.38045 -13.6179,27.40976 -1.9119,2.95401 -1.9461,3.73948 -0.837,19.24403 1.6774,23.45002 -0.4297,49.23357 -5.6737,69.42626 -1.0327,3.97636 0.2796,3.46712 8.1608,-3.16694 z m -349.0714,3.16694 c -4.5018,-14.37763 -7.3812,-64.10265 -4.668,-80.61647 0.7741,-4.71186 0.6316,-5.13384 -4.4837,-13.28156 -2.9057,-4.6283 -6.5236,-11.66338 -8.0398,-15.63353 -1.5161,-3.97014 -3.017,-7.53758 -3.3352,-7.92763 -0.3181,-0.39006 -2.2606,3.27753 -4.3164,8.1502 -17.5676,41.63693 -10.3585,84.27616 18.0145,106.55017 6.2179,4.88132 7.6779,5.47118 6.8286,2.75882 z m 192.9132,-27.18607 c 16.9078,-4.45057 34.2708,-15.86845 47.3098,-31.11084 3.5067,-4.0992 7.5715,-8.85153 9.033,-10.56074 2.0484,-2.39561 3.8028,-3.27335 7.6572,-3.83085 75.9409,-10.98403 110.8939,-101.00223 54.1901,-139.5615 -4.5615,-3.10186 -4.5588,-3.20626 0.2285,-8.64482 67.5518,-76.74296 -53.2154,-198.87684 -130.7034,-132.18243 -5.1119,4.39988 -9.9321,3.95505 -17.0497,-1.57339 -50.48,-39.20978 -129.078,-11.01181 -146.0595,52.40064 -8.1562,30.45675 0.071,73.50347 16.3014,85.29371 0.7031,0.51076 -0.3334,1.92924 -2.9074,3.97896 -54.3631,43.28985 -29.7227,119.839 44.4521,138.09745 12.7151,3.12988 12.7151,3.12988 21.5651,13.52255 26.3385,30.92983 61.1774,43.33295 95.9828,34.17126 z m -37,-73.22192 c -51.7315,-2.12743 -93.1105,-18.39992 -104.25,-40.99685 -8.0906,-16.41213 4.4364,-25.51549 16.8751,-12.26307 23.9807,25.54966 79.5017,26.31201 92.4517,1.26944 2.3314,-4.50845 1.7675,-5.23124 -5.9985,-7.6885 -70.1849,-22.20742 -35.6577,-74.64854 39.7479,-60.37049 44.6516,8.45478 38.0997,47.40362 -10.2348,60.84179 -6.0448,1.68062 -6.0448,1.68062 -3.3181,6.6956 13.8334,25.44246 69.1154,24.60972 92.5227,-1.39371 6.4056,-7.11607 10.6467,-8.08439 15.2495,-3.48167 7.191,7.19106 -1.5837,24.00038 -18.5455,35.5265 -24.7176,16.79647 -62.4541,24.00132 -114.5,21.86096 z m -44.5,-167.3623 c -10.9382,-6.32315 -30.9466,-7.71126 -44,-3.05256 -13.3794,4.77507 -12.4048,5.10821 -11.7156,-4.0045 3.0428,-40.23263 59.6186,-40.37449 60.1163,-0.15074 0.1064,8.6043 -0.4392,9.49787 -4.4007,7.2078 z m 113,-4.36095 c 0,-41.81743 56.6797,-44.93349 59.9175,-3.29406 0.7765,9.98621 1.242,9.60682 -7.4845,6.10021 -16.1959,-6.50805 -31.6502,-6.04742 -48.683,1.45104 -3.75,1.65089 -3.75,1.65089 -3.75,-4.25719 z m -295.0023,178.26311 c 9.4048,-34.95134 36.8198,-98.01474 50.5343,-116.24527 2.9528,-3.92513 5.1572,-7.1366 4.8985,-7.1366 -27.5613,0 -70.3895,56.93139 -70.4888,93.7006 -0.038,14.11002 8.5261,44.16495 11.6848,41.00625 0.2437,-0.24372 1.7608,-5.33996 3.3712,-11.32498 z m 489.9495,3.58289 c 21.2191,-40.99932 -2.7332,-97.42063 -51.5681,-121.47256 -11.1691,-5.50091 -12.6215,-5.60983 -8.1023,-0.60757 4.2056,4.65509 12.0714,17.77373 17.5908,29.33806 13.2421,27.74474 33.5309,80.47562 36.1817,94.03652 1.4415,7.37413 1.4077,7.38154 5.8979,-1.29445 z m -527.6479,-97.94486 c 8.2035,-23.09751 62.4737,-91.37906 87.2007,-109.71404 6,-4.44897 6,-4.44897 -2,-3.78954 -60.4655,4.98413 -104.0637,57.58067 -90.5458,109.23368 2.8093,10.73436 2.9961,10.88365 5.3451,4.2699 z m 562.8596,-5.74101 c 13.3171,-49.52131 -30.3719,-101.52086 -90.5928,-107.82536 -6.9339,-0.72591 -6.9339,-0.72591 0,5.24469 23.656,20.36955 74.5381,84.97413 83.9618,106.6056 3.3327,7.65003 3.5224,7.53487 6.631,-4.02493 z m -70.7542,-154.38414 c 37.3868,-41.58305 -11.4543,-95.32369 -63.9047,-70.31542 -14.3299,6.83247 -14.5188,8.00034 -1.4159,8.75066 41.2845,2.36411 65.9867,27.39141 60.1981,60.99024 -1.2007,6.96907 -0.6793,7.02755 5.1225,0.57452 z m -419.4079,-23.39475 c 7.3749,-23.95681 26.6012,-36.43581 59.0798,-38.34627 11.1136,-0.65373 11.1136,-0.65373 3.2685,-5.32894 -53.748,-32.03064 -107.2214,23.13195 -66.8993,69.01264 2.0542,2.33742 2.0542,2.33742 2.6869,-9.5 0.348,-6.51059 1.1868,-13.63743 1.8641,-15.83743 z m 190.0032,-24.29649 c 0,-2.43983 -14.394,-28.90119 -19.4214,-35.70351 -25.9378,-35.09527 -68.119,-48.61888 -106.6616,-34.19658 -6.417,2.4012 -6.417,2.4012 -0.5272,3.13831 30.5054,3.81779 64.3551,27.69323 76.7958,54.16691 2.8706,6.10865 2.8706,6.10865 12.0925,6.78816 11.2537,0.82922 26.8136,3.31663 32.2219,5.15102 4.7665,1.61669 5.5,1.70413 5.5,0.65569 z m 37.5685,-0.63118 c 8.0234,-2.32277 21.2018,-4.3966 32.504,-5.11501 10.5724,-0.67202 10.5724,-0.67202 14.6535,-9.31467 11.9418,-25.29005 39.1527,-44.36193 72.7197,-50.96876 8.8186,-1.73572 8.8186,-1.73572 0.9365,-4.42873 -43.4374,-14.84078 -89.2539,2.80824 -113.5865,43.75484 -5.6917,9.57791 -13.8177,27.5 -12.4686,27.5 0.1704,0 2.5291,-0.64245 5.2414,-1.42767 z"
       id="path1" />
  </g>
</svg>
